<svg width="36" height="45" viewBox="0 0 36 45" fill="none" xmlns="http://www.w3.org/2000/svg">
<path d="M0 26.5858V20.4142C0 19.5233 1.07714 19.0771 1.7071 19.7071L17.2929 35.2929C17.6834 35.6834 18.3166 35.6834 18.7071 35.2929L34.2929 19.7071C34.9229 19.0771 36 19.5233 36 20.4142V26.5858C36 26.851 35.8946 27.1054 35.7071 27.2929L18.7071 44.2929C18.3166 44.6834 17.6834 44.6834 17.2929 44.2929L0.292893 27.2929C0.105357 27.1054 0 26.851 0 26.5858Z" fill="#FF7E1B"/>
<path d="M17.2929 31.2929L0.707107 14.7071C0.316582 14.3166 0.316581 13.6834 0.707106 13.2929L13.7071 0.292893C13.8946 0.105357 14.149 0 14.4142 0H19.5858C20.4767 0 20.9229 1.07714 20.2929 1.7071L8.70711 13.2929C8.31658 13.6834 8.31658 14.3166 8.70711 14.7071L17.2929 23.2929C17.6834 23.6834 18.3166 23.6834 18.7071 23.2929L27.7071 14.2929C27.8946 14.1054 28.149 14 28.4142 14H33.5858C34.4767 14 34.9229 15.0771 34.2929 15.7071L18.7071 31.2929C18.3166 31.6834 17.6834 31.6834 17.2929 31.2929Z" fill="#78716C"/>
<path d="M17.2929 17.2929L14.7071 14.7071C14.3166 14.3166 14.3166 13.6834 14.7071 13.2929L20.7071 7.29289C20.8946 7.10536 21.149 7 21.4142 7H26.5858C27.4767 7 27.9229 8.07714 27.2929 8.70711L18.7071 17.2929C18.3166 17.6834 17.6834 17.6834 17.2929 17.2929Z" fill="#78716C"/>
</svg>
