<svg width="38" height="48" viewBox="0 0 38 48" fill="none" xmlns="http://www.w3.org/2000/svg">
<path d="M0.585785 13.4142L13.4142 0.585786C13.7893 0.210714 14.298 0 14.8284 0H22.6921C23.2103 0 23.7084 0.201198 24.0812 0.561197L37.3892 13.4103C37.7795 13.7871 38 14.3065 38 14.8491V28.1716C38 28.702 37.7893 29.2107 37.4142 29.5858L20.4142 46.5858C19.6332 47.3668 18.3668 47.3668 17.5858 46.5858L0.585786 29.5858C0.210714 29.2107 0 28.702 0 28.1716V14.8284C0 14.298 0.210713 13.7893 0.585785 13.4142Z" fill="white"/>
<path d="M1 27.5858V21.4142C1 20.5233 2.07714 20.0771 2.7071 20.7071L18.2929 36.2929C18.6834 36.6834 19.3166 36.6834 19.7071 36.2929L35.2929 20.7071C35.9229 20.0771 37 20.5233 37 21.4142V27.5858C37 27.851 36.8946 28.1054 36.7071 28.2929L19.7071 45.2929C19.3166 45.6834 18.6834 45.6834 18.2929 45.2929L1.29289 28.2929C1.10536 28.1054 1 27.851 1 27.5858Z" fill="#FF7E1B"/>
<path d="M18.2929 32.2929L1.70711 15.7071C1.31658 15.3166 1.31658 14.6834 1.70711 14.2929L14.7071 1.29289C14.8946 1.10536 15.149 1 15.4142 1H20.5858C21.4767 1 21.9229 2.07714 21.2929 2.7071L9.70711 14.2929C9.31658 14.6834 9.31658 15.3166 9.70711 15.7071L18.2929 24.2929C18.6834 24.6834 19.3166 24.6834 19.7071 24.2929L28.7071 15.2929C28.8946 15.1054 29.149 15 29.4142 15H34.5858C35.4767 15 35.9229 16.0771 35.2929 16.7071L19.7071 32.2929C19.3166 32.6834 18.6834 32.6834 18.2929 32.2929Z" fill="#2C2A28"/>
<path d="M18.2929 18.2929L15.7071 15.7071C15.3166 15.3166 15.3166 14.6834 15.7071 14.2929L21.7071 8.29289C21.8946 8.10536 22.149 8 22.4142 8H27.5858C28.4767 8 28.9229 9.07714 28.2929 9.70711L19.7071 18.2929C19.3166 18.6834 18.6834 18.6834 18.2929 18.2929Z" fill="#2C2A28"/>
</svg>
